<svg width="199" height="188" viewBox="0 0 199 188" fill="none" xmlns="http://www.w3.org/2000/svg">
<path d="M89.3513 186.38C101.571 186.15 113.801 186.17 126.021 185.7C148.981 184.81 171.931 183.66 194.881 182.57C196.131 182.51 197.361 182.03 198.921 181.67C198.441 180.16 198.291 178.98 197.741 178.03C193.281 170.36 188.591 162.82 184.281 155.07C177.661 143.18 171.251 131.17 164.801 119.18C162.151 114.26 159.681 109.25 157.031 104.34C153.001 96.88 148.911 89.44 144.781 82.03C142.061 77.14 139.111 72.38 136.451 67.46C132.821 60.74 129.491 53.85 125.791 47.17C120.961 38.43 115.851 29.83 110.941 21.13C108.971 17.64 107.251 14 105.351 10.47C103.631 7.28 101.811 4.14 99.4813 0C97.9213 1.88 96.9113 2.77 96.3113 3.88C90.7513 14.16 85.2713 24.48 79.7613 34.79C75.8613 42.08 71.9413 49.37 68.0113 56.65C63.4513 65.09 58.8013 73.48 54.3213 81.97C51.1013 88.06 48.2513 94.34 44.9913 100.41C37.2413 114.81 29.3513 129.13 21.5213 143.48C15.1613 155.13 8.74131 166.75 2.46131 178.44C1.13131 180.91 -0.748693 183.36 0.311307 186.62C12.3813 186.9 24.3613 187.47 36.3413 187.4C54.0013 187.28 71.6713 186.72 89.3513 186.38Z" fill="#E8E8E8"/>
</svg>
