<svg width="377" height="178" viewBox="0 0 377 178" fill="none" xmlns="http://www.w3.org/2000/svg">
<path d="M9.68 63.19C13.89 73.16 19.13 82.53 25.06 91.55C35.5 107.44 48.05 121.5 62.58 133.69C73.67 143 86.04 150.51 98.99 157.02C101.39 158.23 103.58 159.93 106.07 160.84C114.67 163.98 123.42 166.71 132.01 169.91C141.31 173.37 151.05 174.92 160.75 176.01C170.7 177.13 180.83 177.13 190.86 176.85C201.12 176.56 211.36 175.46 221.58 174.46C225.21 174.11 228.89 173.36 232.35 172.23C240.56 169.54 248.6 166.28 256.83 163.66C265.86 160.78 274.21 156.49 282.27 151.72C289.54 147.42 296.31 142.26 303.32 137.52C314.76 129.78 323.8 119.52 332.95 109.37C335.81 106.2 339.13 103.33 341.41 99.78C347.96 89.57 354.71 79.49 359.9 68.43C366.22 54.98 371.05 41.08 374.28 26.61C374.55 25.4 374.81 24.2 375.05 22.99C375.95 18.56 376.94 4.25 376.28 0C375.29 4.96 367.31 17.53 364.5 22.19C359.71 30.13 354.09 37.53 348.23 44.77C342.28 52.11 335.27 58.42 328.47 64.98C321.19 72 312.97 77.66 304.72 83.24C297.94 87.82 290.33 91.17 283.03 94.96C279.29 96.9 275.5 98.77 271.63 100.41C264.93 103.25 258.28 106.38 251.34 108.47C242.9 111 234.19 112.68 225.55 114.53C220.27 115.66 214.94 116.76 209.58 117.31C196.05 118.68 182.48 119.67 168.87 118.37C164.85 117.99 160.84 117.58 156.84 117.07C147.88 115.91 138.82 115.18 130.01 113.33C121.77 111.6 113.71 108.89 105.72 106.16C98.31 103.63 90.93 100.88 83.85 97.55C76.7 94.19 69.75 90.3 63.05 86.12C54.52 80.8 45.82 75.56 38.08 69.2C23.94 57.56 11.45 44.21 0 28.2C0.37 36.32 1.01 37.94 2.12 42.13C4.06 49.39 6.77 56.3 9.68 63.19Z" fill="#E8E8E8"/>
</svg>
